<svg xmlns="http://www.w3.org/2000/svg" width="882.236" height="216.615" viewBox="0 0 233.425 57.313" version="1.1" id="svg8"><g id="layer1" transform="translate(-10.413 -122.433)"><path style="fill:#000;stroke-width:.264583px" d="M163.938 176.955c-.646-.143-.734-.679-.422-2.568l.169-1.018 1.36.17c1.155.145 1.496.078 2.275-.447 1.745-1.174 1.703-.819 1.787-15.217l.075-13.032-.605-.238c-.332-.132-1.2-.34-1.927-.462l-1.323-.223-.08-1.522-.079-1.521h8.509l-.074 15.412-.074 15.412-.629 1.39c-.69 1.529-1.994 2.827-3.448 3.435-.955.399-4.427.669-5.514.429zM73.37 166.727c-2.551-.724-4.299-2.324-5.31-4.86-.583-1.461-.62-1.935-.708-8.9-.067-5.358-.177-7.382-.404-7.445a460.27 460.27 0 0 0-1.436-.392l-1.125-.306v-4.212h9.79v8.859c0 9.834.089 10.447 1.684 11.583 1.585 1.13 4.681.68 6.452-.94.588-.538.595-.623.595-7.518 0-5.343-.077-7-.33-7.084-.183-.061-.837-.24-1.456-.399L80 144.825v-4.213h9.922l-.073 10.366c-.04 5.845.031 10.469.164 10.602.13.13.818.384 1.528.565l1.291.329.077 2.166.077 2.166h-4.48c-4.871 0-4.798.024-4.806-1.543a6.234 6.234 0 0 0-.164-1.307c-.155-.576-.215-.551-1.46.614-.715.668-1.842 1.455-2.504 1.748-1.512.668-4.574.87-6.2.41zm33.747.095c-1.158-.283-2.823-1.195-3.493-1.912-1.439-1.543-1.524-2.106-1.666-11.068l-.132-8.335-1.786-.078-1.786-.078v-4.714l1.786-.079 1.786-.078.074-3.249.074-3.249 3.366.074 3.365.074.074 3.241.074 3.242h4.747V145.375H108.839v7.293c0 4.719.1 7.482.285 7.828.43.805 1.87 1.304 3.226 1.118l1.162-.16.324 2.317c.178 1.274.228 2.41.11 2.522-.624.6-5.114.949-6.828.53zm22.122-.037c-.64-.126-1.91-.579-2.826-1.007-4.38-2.05-6.556-6.1-6.556-12.201 0-4.764 1.124-7.709 3.916-10.261 2.525-2.307 5.057-3.114 9.106-2.903 1.687.088 3.04.323 4.004.694 3.115 1.199 5.55 3.83 6.64 7.178.712 2.184.943 6.129.51 8.697-1.192 7.063-7.491 11.237-14.794 9.803zm5.465-5.709c2.008-1.487 2.819-3.977 2.658-8.165-.098-2.555-.212-3.161-.841-4.447-1.007-2.057-1.941-2.665-4.267-2.78-1.6-.077-1.98-.004-2.773.535-1.096.743-2.018 2.042-2.383 3.358-.418 1.505-.336 7.182.122 8.482.932 2.642 2.602 3.805 5.235 3.646 1.003-.061 1.773-.276 2.249-.629zM10.413 164.73v-2.077l1.786-.37 1.786-.37.069-12.36c.078-14.067.346-12.539-2.339-13.336l-1.302-.387v-4.212l8.93.002c4.911 0 9.683.124 10.603.273 6.74 1.094 10.64 6.07 9.837 12.55-.567 4.57-3.923 7.95-8.95 9.016-1.074.228-3.35.376-5.802.379l-4.034.005v8.154l1.852.313 1.852.312v4.186H10.413Zm19.254-16.589c3.417-1.427 4.483-5.891 2.169-9.085-1.197-1.652-2.875-2.147-7.277-2.147h-3.562v11.641h3.845c2.871 0 4.093-.103 4.825-.409zm15.936 16.602v-2.063l1.587-.328 1.588-.328v-13.756c0-10.771-.072-13.78-.33-13.865-.183-.06-1.016-.243-1.853-.407l-1.521-.3v-4.46h10.715l-.07 16.26c-.079 18.365-.302 16.586 2.12 16.95l1.258.188v4.173H45.603zm107.42-.317v-2.381H157.523V166.806h-4.498zm29.105.958v-1.423l1.918-.369 1.918-.369.069-14.976.068-14.977-1.92-.368-1.92-.368-.08-1.65-.079-1.648h8.753l.068 16.994.068 16.993 1.919.37 1.918.368v2.846h-12.7zm-13.23-33.899v-2.513h4.763V133.998H168.9z" id="path21"/><g transform="matrix(1.12603 0 0 1.12603 -65.712 -32.684)" id="layer1-0"><g transform="matrix(.66542 0 0 .66542 140.882 87.132)" id="g51"><circle style="fill:#d66661;stroke:#c93d39;stroke-width:3px" cx="183.41" cy="134.568" r="16.5" id="circle18"/><circle style="fill:#aa7dc0;stroke:#945bb0;stroke-width:3px" cx="183.41" cy="114.322" r="16.5" id="circle22"/><circle style="fill:#6bab5b;stroke:#3b972e;stroke-width:3px" cx="183.41" cy="94.077" r="16.5" id="circle20"/></g></g></g></svg>