<?xml version="1.0" encoding="UTF-8" standalone="no"?>
<svg
   width="1315"
   height="925"
   xml:space="preserve"
   overflow="hidden"
   version="1.1"
   id="svg3"
   sodipodi:docname="jive_logo.svg"
   inkscape:version="1.3.2 (091e20e, 2023-11-25, custom)"
   xmlns:inkscape="http://www.inkscape.org/namespaces/inkscape"
   xmlns:sodipodi="http://sodipodi.sourceforge.net/DTD/sodipodi-0.dtd"
   xmlns="http://www.w3.org/2000/svg"
   xmlns:svg="http://www.w3.org/2000/svg"><defs
     id="defs3" /><sodipodi:namedview
     id="namedview3"
     pagecolor="#ffffff"
     bordercolor="#000000"
     borderopacity="0.25"
     inkscape:showpageshadow="2"
     inkscape:pageopacity="0.0"
     inkscape:pagecheckerboard="0"
     inkscape:deskcolor="#d1d1d1"
     inkscape:zoom="0.74752852"
     inkscape:cx="658.83774"
     inkscape:cy="462.18972"
     inkscape:window-width="1920"
     inkscape:window-height="1046"
     inkscape:window-x="-11"
     inkscape:window-y="-11"
     inkscape:window-maximized="1"
     inkscape:current-layer="g3" /><g
     transform="translate(-1373,-90)"
     id="g3"><path
       id="text1"
       d="m 1734.3594,378.59766 -70.2539,19.33593 V 650.375 c 0,6.73176 -0.2865,12.2461 -0.8594,16.54297 -0.4297,4.29687 -1.1458,7.73438 -2.1484,10.3125 -1.0026,2.57812 -2.2917,4.36849 -3.8672,5.37109 -1.5756,1.00261 -3.3659,1.50391 -5.3711,1.50391 -1.862,0 -3.9388,-0.71615 -6.2305,-2.14844 -2.1484,-1.43229 -4.8698,-4.29688 -8.1641,-8.59375 -1.289,-1.86198 -2.7929,-3.86719 -4.5117,-6.01562 -1.862,-2.00521 -3.9388,-3.93881 -6.2304,-5.80078 -2.2917,-1.71875 -4.8698,-3.15105 -7.7344,-4.29688 -3.0078,-1.14583 -6.3737,-1.71875 -10.0977,-1.71875 -9.8828,0 -17.6888,2.4349 -23.4179,7.30469 -5.7292,4.86978 -8.5938,10.95704 -8.5938,18.26172 0,4.15364 1.3607,8.09245 4.082,11.8164 2.5782,3.86719 6.4454,7.23308 11.6016,10.09766 5.1562,2.86458 11.53,5.08464 19.1211,6.66016 7.5911,1.71874 16.2565,2.57812 25.9961,2.57812 14.4661,0 27.6432,-1.21745 39.5312,-3.65234 11.888,-2.29167 22.0573,-6.94663 30.5079,-13.96485 8.4505,-6.87499 14.9674,-16.61459 19.5507,-29.21875 4.7266,-12.46092 7.0899,-28.93231 7.0899,-49.41406 z m 130.8398,0 -69.8242,19.33593 V 616 h 69.8242 z m 420.8789,2.14843 c -18.0468,0 -34.4466,3.22267 -49.1992,9.66797 -14.7526,6.44531 -27.3568,15.39715 -37.8125,26.85547 -10.4557,11.31509 -18.5482,24.77866 -24.2773,40.39063 -5.7292,15.46873 -8.5938,32.29819 -8.5938,50.48828 0,15.18227 3.0794,29.64845 9.2383,43.39844 6.1588,13.60675 14.6094,25.56641 25.3516,35.8789 10.7421,10.31249 23.2747,18.54818 37.5976,24.70703 14.4661,6.01562 29.9349,9.02344 46.4063,9.02344 12.7473,0 25.3515,-2.36329 37.8125,-7.08984 12.6041,-4.86979 24.2057,-11.38673 34.8046,-19.55079 10.599,-8.30728 19.8373,-17.97527 27.7149,-29.0039 8.0208,-11.02864 13.8216,-22.77345 17.4023,-35.23438 l -35.8789,-5.37109 c -2.1484,6.87499 -5.5143,13.39193 -10.0976,19.55078 -4.5834,6.15885 -10.0261,11.60157 -16.3281,16.32813 -6.3021,4.58332 -13.1771,8.23568 -20.625,10.95703 -7.448,2.57812 -15.0391,3.86719 -22.7735,3.86719 -8.8802,0 -16.9727,-2.57814 -24.2773,-7.73438 -7.3047,-5.29947 -13.6784,-12.38933 -19.1211,-21.26953 -5.4427,-8.8802 -9.8112,-19.12111 -13.1055,-30.72266 -3.151,-11.60155 -4.9414,-23.77605 -5.3711,-36.52343 h 159.8438 c 0,-13.74999 -2.6498,-26.56903 -7.9493,-38.45704 -5.2994,-12.03123 -12.7474,-22.48698 -22.3437,-31.36718 -9.4531,-9.02343 -20.9115,-16.04168 -34.375,-21.05469 -13.3203,-5.15625 -28.0013,-7.73438 -44.043,-7.73438 z m -389.2969,0.42969 111.7188,239.98047 h 32.0117 l 113.8672,-239.98047 h -47.9101 l -68.75,144.58984 -67.461,-144.58984 z M 2272.7578,409.75 c 5.5859,0 10.7422,1.14584 15.4688,3.4375 4.8697,2.14844 9.095,5.22787 12.6757,9.23828 3.724,4.01041 6.7318,8.8086 9.0235,14.39453 2.4349,5.58593 3.9388,11.81642 4.5117,18.69141 h -79.0625 c 0.7161,-6.87499 2.2201,-13.10548 4.5117,-18.69141 2.4349,-5.72916 5.3711,-10.59896 8.8086,-14.60937 3.4375,-4.01042 7.2331,-7.08985 11.3867,-9.23828 4.1537,-2.14844 8.3789,-3.22266 12.6758,-3.22266 z" /><path
       d="m 1660,312.5 c 0,-22.368 18.8,-40.5 42,-40.5 23.2,0 42,18.132 42,40.5 0,22.368 -18.8,40.5 -42,40.5 -23.2,0 -42,-18.132 -42,-40.5 z"
       fill="#cb3c33"
       fill-rule="evenodd"
       id="path1"
       inkscape:export-filename="jive_logo_small.png"
       inkscape:export-xdpi="16"
       inkscape:export-ydpi="16" /><path
       d="m 1791,312.5 c 0,-22.368 18.8,-40.5 42,-40.5 23.2,0 42,18.132 42,40.5 0,22.368 -18.8,40.5 -42,40.5 -23.2,0 -42,-18.132 -42,-40.5 z"
       fill="#9558b2"
       fill-rule="evenodd"
       id="path2" /><path
       d="m 1725,220.5 c 0,-22.368 19.03,-40.5 42.5,-40.5 23.47,0 42.5,18.132 42.5,40.5 0,22.368 -19.03,40.5 -42.5,40.5 -23.47,0 -42.5,-18.132 -42.5,-40.5 z"
       fill="#389826"
       fill-rule="evenodd"
       id="path3"
       inkscape:export-filename="jive_logo.png"
       inkscape:export-xdpi="96"
       inkscape:export-ydpi="96" /></g></svg>
