<?xml version="1.0" encoding="UTF-8" standalone="no"?>
<svg
   width="1315"
   height="925"
   xml:space="preserve"
   overflow="hidden"
   version="1.1"
   id="svg14"
   sodipodi:docname="jive_logo.svg"
   inkscape:version="1.3.2 (091e20e, 2023-11-25, custom)"
   xmlns:inkscape="http://www.inkscape.org/namespaces/inkscape"
   xmlns:sodipodi="http://sodipodi.sourceforge.net/DTD/sodipodi-0.dtd"
   xmlns="http://www.w3.org/2000/svg"
   xmlns:svg="http://www.w3.org/2000/svg"><sodipodi:namedview
     id="namedview14"
     pagecolor="#ffffff"
     bordercolor="#000000"
     borderopacity="0.25"
     inkscape:showpageshadow="2"
     inkscape:pageopacity="0.0"
     inkscape:pagecheckerboard="0"
     inkscape:deskcolor="#d1d1d1"
     inkscape:zoom="0.74752852"
     inkscape:cx="657.5"
     inkscape:cy="462.18973"
     inkscape:window-width="1920"
     inkscape:window-height="1057"
     inkscape:window-x="-8"
     inkscape:window-y="-8"
     inkscape:window-maximized="1"
     inkscape:current-layer="g14" /><defs
     id="defs12"><radialGradient
       cx="116378"
       cy="112222"
       r="161671"
       fx="116378"
       fy="112222"
       gradientUnits="userSpaceOnUse"
       spreadMethod="pad"
       id="fill0"
       gradientTransform="matrix(0.000360892 0 0 0.000360892 3293 459)"><stop
         offset="0"
         stop-color="#9558B2"
         id="stop1" /><stop
         offset="0.02"
         stop-color="#9558B2"
         id="stop2" /><stop
         offset="0.88"
         stop-color="#FFFFFF"
         stop-opacity="0.419608"
         id="stop3" /><stop
         offset="1"
         stop-color="#FFFFFF"
         stop-opacity="0.419608"
         id="stop4" /></radialGradient><radialGradient
       cx="116378"
       cy="112222"
       r="161671"
       fx="116378"
       fy="112222"
       gradientUnits="userSpaceOnUse"
       spreadMethod="pad"
       id="fill1"
       gradientTransform="matrix(0.000360892 0 0 0.000360892 3227 373)"><stop
         offset="0"
         stop-color="#389826"
         id="stop5" /><stop
         offset="0.02"
         stop-color="#389826"
         id="stop6" /><stop
         offset="0.88"
         stop-color="#FFFFFF"
         stop-opacity="0.419608"
         id="stop7" /><stop
         offset="1"
         stop-color="#FFFFFF"
         stop-opacity="0.419608"
         id="stop8" /></radialGradient><radialGradient
       cx="117763"
       cy="112222"
       r="162672"
       fx="117764"
       fy="112222"
       gradientUnits="userSpaceOnUse"
       spreadMethod="pad"
       id="fill2"
       gradientTransform="matrix(0.000360892 0 0 0.000360892 3161 459)"><stop
         offset="0"
         stop-color="#CB3C33"
         id="stop9" /><stop
         offset="0.02"
         stop-color="#CB3C33"
         id="stop10" /><stop
         offset="0.88"
         stop-color="#FFFFFF"
         stop-opacity="0.419608"
         id="stop11" /><stop
         offset="1"
         stop-color="#FFFFFF"
         stop-opacity="0.419608"
         id="stop12" /></radialGradient></defs><g
     transform="translate(-2881 -315)"
     id="g14"><path
       id="text12"
       d="m 3207.8965,484.11328 c 0.01,0.007 0.012,0.0127 0.018,0.0195 0.068,0.008 0.1372,0.007 0.205,0.0137 -0.074,-0.0108 -0.1483,-0.0225 -0.2226,-0.0332 z m 26.4043,35.92383 c -0.2794,0.013 -0.5585,0.0203 -0.8379,0.0332 0.094,0.31358 0.1518,0.43366 0.2226,0.625 0.2275,-0.20146 0.3941,-0.45166 0.6153,-0.6582 z m 8.2695,43.56055 -70.2539,19.33593 V 835.375 c 0,6.73173 -0.2865,12.2461 -0.8594,16.54297 -0.4297,4.29684 -1.1458,7.73438 -2.1484,10.3125 -1.0026,2.57812 -2.2917,4.36849 -3.8672,5.37109 -1.5755,1.00261 -3.3659,1.50391 -5.3711,1.50391 -1.862,0 -3.9388,-0.71615 -6.2305,-2.14844 -2.1484,-1.43229 -4.8698,-4.29688 -8.164,-8.59375 -1.2891,-1.86198 -2.793,-3.86722 -4.5117,-6.01562 -1.862,-2.00521 -3.9388,-3.93884 -6.2305,-5.80078 -2.2917,-1.71875 -4.8698,-3.15105 -7.7344,-4.29688 -3.0078,-1.14583 -6.3737,-1.71875 -10.0976,-1.71875 -9.8828,0 -17.6888,2.4349 -23.418,7.30469 -5.7292,4.86975 -8.5938,10.95704 -8.5938,18.26172 0,4.15361 1.3607,8.09248 4.0821,11.8164 2.5781,3.86719 6.4453,7.23308 11.6015,10.09766 5.1563,2.86458 11.53,5.08464 19.1211,6.66016 7.5912,1.71871 16.2566,2.57812 25.9961,2.57812 14.4662,0 27.6433,-1.21748 39.5313,-3.65234 11.888,-2.29167 22.0573,-6.94663 30.5078,-13.96485 8.4505,-6.87496 14.9674,-16.61462 19.5508,-29.21875 4.7265,-12.46089 7.0898,-28.93237 7.0898,-49.41406 z m 130.8399,0 -69.8243,19.33593 V 801 h 69.8243 z m 420.8789,2.14843 c -18.0469,0 -34.4467,3.2227 -49.1993,9.66797 -14.7522,6.44531 -27.3567,15.39718 -37.8125,26.85547 -10.4554,11.31506 -18.5481,24.77869 -24.2773,40.39063 -5.7292,15.46867 -8.5938,32.29825 -8.5938,50.48828 0,15.18221 3.0795,29.64848 9.2383,43.39844 6.1589,13.60669 14.6094,25.56644 25.3516,35.8789 10.7422,10.31246 23.2747,18.54821 37.5977,24.70703 14.4658,6.01562 29.9349,9.02344 46.4062,9.02344 12.7474,0 25.3516,-2.36332 37.8125,-7.08984 12.6042,-4.86979 24.2057,-11.38673 34.8047,-19.55079 10.5989,-8.30725 19.8372,-17.9753 27.7148,-29.0039 8.0209,-11.02861 13.8216,-22.77348 17.4024,-35.23438 l -35.8789,-5.37109 c -2.1485,6.87496 -5.5144,13.39196 -10.0977,19.55078 -4.5833,6.15885 -10.026,11.60157 -16.3281,16.32813 -6.3021,4.58329 -13.1771,8.23568 -20.625,10.95703 -7.4479,2.57809 -15.0391,3.86719 -22.7735,3.86719 -8.8798,0 -16.9726,-2.57817 -24.2773,-7.73438 -7.3047,-5.29944 -13.6784,-12.38936 -19.1211,-21.26953 -5.4427,-8.88017 -9.8112,-19.12114 -13.1055,-30.72266 -3.151,-11.60152 -4.9414,-23.77611 -5.3711,-36.52343 H 3903 c 0,-13.74996 -2.6497,-26.56906 -7.9492,-38.45704 -5.2995,-12.03117 -12.7474,-22.48701 -22.3438,-31.36718 -9.4531,-9.0234 -20.9114,-16.04171 -34.375,-21.05469 -13.3203,-5.15625 -28.0016,-7.73438 -44.0429,-7.73438 z m -389.2969,0.42969 111.7187,239.98047 h 32.0118 l 113.8671,-239.98047 h -47.9101 l -68.75,144.58984 -67.4609,-144.58984 z M 3780.9688,594.75 c 5.5856,0 10.7421,1.14584 15.4687,3.4375 4.8698,2.14844 9.0951,5.2279 12.6758,9.23828 3.7239,4.01041 6.7318,8.80863 9.0234,14.39453 2.4349,5.58593 3.9388,11.81645 4.5117,18.69141 h -79.0625 c 0.7162,-6.87496 2.2201,-13.10548 4.5118,-18.69141 2.4348,-5.72913 5.3714,-10.59899 8.8085,-14.60937 3.4375,-4.01042 7.2331,-7.08988 11.3868,-9.23828 4.1536,-2.14844 8.3789,-3.22266 12.6758,-3.22266 z" /><path
       d="M3293 499.5C3293 477.132 3311.8 459 3335 459 3358.2 459 3377 477.132 3377 499.5 3377 521.868 3358.2 540 3335 540 3311.8 540 3293 521.868 3293 499.5Z"
       fill="url(#fill0)"
       fill-rule="evenodd"
       id="path12" /><path
       d="M3227 413.5C3227 391.132 3245.8 373 3269 373 3292.2 373 3311 391.132 3311 413.5 3311 435.868 3292.2 454 3269 454 3245.8 454 3227 435.868 3227 413.5Z"
       fill="url(#fill1)"
       fill-rule="evenodd"
       id="path13" /><path
       d="M3161 499.5C3161 477.132 3180.03 459 3203.5 459 3226.97 459 3246 477.132 3246 499.5 3246 521.868 3226.97 540 3203.5 540 3180.03 540 3161 521.868 3161 499.5Z"
       fill="url(#fill2)"
       fill-rule="evenodd"
       id="path14" /></g></svg>
