<?xml version="1.0" encoding="UTF-8" standalone="no"?>
<!-- Created with Inkscape (http://www.inkscape.org/) -->
<svg xmlns:dc="http://purl.org/dc/elements/1.1/" xmlns:cc="http://creativecommons.org/ns#" xmlns:rdf="http://www.w3.org/1999/02/22-rdf-syntax-ns#" xmlns:svg="http://www.w3.org/2000/svg" xmlns="http://www.w3.org/2000/svg" xmlns:sodipodi="http://sodipodi.sourceforge.net/DTD/sodipodi-0.dtd" xmlns:inkscape="http://www.inkscape.org/namespaces/inkscape" width="233.42502mm" height="57.312805mm" viewBox="0 0 233.42503 57.312805" version="1.1" id="svg8" inkscape:version="0.92.3 (2405546, 2018-03-11)" sodipodi:docname="plutologo1.svg">
  <defs id="defs2"/>
  <sodipodi:namedview id="base" pagecolor="#ffffff" bordercolor="#666666" borderopacity="1.0" inkscape:pageopacity="0.0" inkscape:pageshadow="2" inkscape:zoom="0.49497475" inkscape:cx="722.72854" inkscape:cy="178.74246" inkscape:document-units="mm" inkscape:current-layer="layer1" showgrid="false" inkscape:window-width="1920" inkscape:window-height="1013" inkscape:window-x="-9" inkscape:window-y="-9" inkscape:window-maximized="1"/>
  <metadata id="metadata5">
    <rdf:RDF>
      <cc:Work rdf:about="">
        <dc:format>image/svg+xml</dc:format>
        <dc:type rdf:resource="http://purl.org/dc/dcmitype/StillImage"/>
        <dc:title/>
      </cc:Work>
    </rdf:RDF>
  </metadata>
  <g inkscape:label="Layer 1" inkscape:groupmode="layer" id="layer1" transform="translate(-10.41325,-122.43256)">
    <path style="fill:#000000;stroke-width:0.26458332" d="m 163.93773,176.95478 c -0.64534,-0.14235 -0.73338,-0.6788 -0.42133,-2.56755 l 0.16816,-1.01783 1.35959,0.16987 c 1.15619,0.14446 1.49674,0.0775 2.27632,-0.44725 1.74426,-1.1742 1.70257,-0.81898 1.78611,-15.21696 l 0.0756,-13.03209 -0.60478,-0.23838 c -0.33263,-0.13111 -1.20009,-0.33886 -1.9277,-0.46167 l -1.32292,-0.22328 -0.0793,-1.52135 -0.0794,-1.52136 h 4.2547 4.25469 l -0.0743,15.41198 -0.0743,15.41198 -0.62873,1.39099 c -0.69062,1.52794 -1.99459,2.8264 -3.44839,3.43384 -0.95455,0.39884 -4.42634,0.66899 -5.51403,0.42906 z M 73.371007,166.72734 c -2.551166,-0.72411 -4.299009,-2.32387 -5.310415,-4.86049 -0.58252,-1.46096 -0.620147,-1.9344 -0.707377,-8.90074 -0.06708,-5.35685 -0.176956,-7.38125 -0.404067,-7.44427 -0.171563,-0.0476 -0.817951,-0.224 -1.436415,-0.39198 l -1.124479,-0.30542 v -2.10604 -2.10605 h 4.894792 4.894792 v 8.85819 c 0,9.83428 0.08909,10.44719 1.683739,11.58387 1.585537,1.13019 4.68144,0.67917 6.452198,-0.93996 0.588534,-0.53814 0.595312,-0.62373 0.595312,-7.51798 0,-5.34337 -0.07732,-6.99958 -0.330729,-7.08457 -0.181901,-0.061 -0.836745,-0.24045 -1.455208,-0.39877 l -1.124479,-0.28784 v -2.10647 -2.10647 l 4.960937,-1e-4 4.960938,-9e-5 -0.07227,10.36564 c -0.04075,5.84548 0.03085,10.46876 0.1642,10.60211 0.130056,0.13006 0.81742,0.38434 1.527474,0.56508 l 1.291008,0.32862 0.07685,2.16625 0.07684,2.16624 H 88.50434 c -4.870551,0 -4.797102,0.0236 -4.805119,-1.54299 -0.0021,-0.38828 -0.0761,-0.97651 -0.164695,-1.30718 -0.154438,-0.57642 -0.214638,-0.55111 -1.460265,0.61403 -0.714552,0.66838 -1.84091,1.45486 -2.503016,1.74774 -1.51192,0.6688 -4.574347,0.87113 -6.200243,0.40964 z m 33.747453,0.0951 c -1.15871,-0.28334 -2.82392,-1.19501 -3.4931,-1.91241 -1.4392,-1.54291 -1.52402,-2.10633 -1.66627,-11.06849 l -0.13229,-8.33438 -1.78594,-0.0782 -1.78594,-0.0782 v -2.35707 -2.35707 l 1.78594,-0.0782 1.78594,-0.0782 0.0743,-3.24899 0.0743,-3.24899 3.36523,0.074 3.36523,0.074 0.0743,3.24114 0.0743,3.24115 h 2.37311 2.3731 v 2.38125 2.38125 h -2.38125 -2.38125 v 7.29344 c 0,4.71853 0.10093,7.48202 0.28588,7.8276 0.43072,0.8048 1.87068,1.3038 3.2262,1.11801 l 1.16187,-0.15925 0.32407,2.31656 c 0.17824,1.2741 0.22793,2.40901 0.11042,2.52202 -0.62421,0.60032 -5.11429,0.9483 -6.82823,0.52919 z m 22.12137,-0.0379 c -0.63908,-0.12551 -1.91062,-0.57854 -2.82564,-1.00673 -4.37972,-2.04952 -6.55598,-6.09959 -6.55598,-12.20085 0,-4.7642 1.12389,-7.70899 3.91612,-10.26094 2.52422,-2.30699 5.05706,-3.11439 9.10605,-2.90276 1.68681,0.0882 3.04053,0.32263 4.00371,0.69344 3.115,1.19925 5.54898,3.83067 6.63998,7.1786 0.71169,2.18394 0.94281,6.12833 0.50957,8.69681 -1.19123,7.06246 -7.4909,11.23664 -14.79381,9.80243 z m 5.465,-5.70842 c 2.00812,-1.48755 2.81868,-3.97703 2.65839,-8.16468 -0.0978,-2.55525 -0.21253,-3.16144 -0.84169,-4.4474 -1.00622,-2.05664 -1.9409,-2.66548 -4.26649,-2.77914 -1.59935,-0.0782 -1.97925,-0.005 -2.77299,0.5336 -1.09613,0.74388 -2.01778,2.04269 -2.38331,3.35859 -0.41808,1.50515 -0.33611,7.18222 0.12249,8.48201 0.93204,2.64169 2.60195,3.80465 5.23464,3.64554 1.00284,-0.0606 1.77279,-0.27579 2.24896,-0.62852 z M 10.413255,164.7292 v -2.07693 l 1.785938,-0.37047 1.785937,-0.37046 0.06875,-12.35857 c 0.07827,-14.06823 0.34634,-12.53939 -2.338501,-13.3367 l -1.302129,-0.38669 v -2.10642 -2.10641 l 8.929688,0.002 c 4.911328,0.001 9.682598,0.12417 10.602822,0.2735 6.740789,1.09383 10.640782,6.06944 9.837065,12.55013 -0.566745,4.5699 -3.92267,7.95029 -8.950709,9.01595 -1.072846,0.22738 -3.349076,0.37603 -5.800637,0.37883 l -4.034896,0.005 v 4.07713 4.07714 l 1.852084,0.31239 1.852083,0.3124 v 2.09276 2.09276 H 17.557 10.41325 Z M 29.66658,148.14035 c 3.41713,-1.42777 4.482943,-5.89153 2.169321,-9.08539 -1.19655,-1.65179 -2.874511,-2.14678 -7.277363,-2.14678 h -3.56195 v 5.82084 5.82083 h 3.844957 c 2.871889,0 4.092991,-0.10364 4.825035,-0.4095 z m 15.936258,16.60202 v -2.06373 l 1.5875,-0.32789 1.5875,-0.3279 v -13.75626 c 0,-10.77083 -0.07178,-13.77978 -0.330729,-13.86463 -0.181901,-0.0596 -1.015339,-0.2429 -1.852084,-0.40733 l -1.521354,-0.29896 v -2.2302 -2.2302 l 5.357813,-5e-5 5.357812,-4e-5 -0.07013,16.26048 c -0.0792,18.36478 -0.301828,16.58551 2.120649,16.94874 l 1.256771,0.18845 v 2.08662 2.08663 h -6.746875 -6.746875 z m 107.420832,-0.31752 v -2.38125 h 2.24896 2.24896 v 2.38125 2.38125 h -2.24896 -2.24896 z m 29.10417,0.95827 v -1.42299 l 1.91822,-0.36886 1.91823,-0.36886 0.0683,-14.97655 0.0683,-14.97656 -1.9204,-0.36834 -1.9204,-0.36834 -0.0788,-1.64868 -0.0788,-1.64867 h 4.3763 4.37631 l 0.0681,16.99356 0.0681,16.99357 1.91823,0.36886 1.91823,0.36887 v 1.42299 1.42298 h -6.35 -6.35 z m -13.22917,-33.89889 v -2.51355 h 2.38125 2.38125 v 2.51355 2.51354 h -2.38125 -2.38125 z" id="path21" inkscape:connector-curvature="0"/>
    <g transform="matrix(1.1260251,0,0,1.1260251,-65.712151,-32.684307)" id="layer1-0" inkscape:label="Layer 1">
      <g transform="matrix(0.66542322,0,0,0.66542322,140.88249,87.132493)" id="g51">
        <circle style="fill:#d66661;stroke:#c93d39;stroke-width:3" cx="183.41008" cy="134.56754" r="16.5" id="circle18"/>
        <circle style="fill:#aa7dc0;stroke:#945bb0;stroke-width:3" cx="183.41008" cy="114.32245" r="16.5" id="circle22"/>
        <circle style="fill:#6bab5b;stroke:#3b972e;stroke-width:3" cx="183.41008" cy="94.077362" r="16.5" id="circle20"/>
      </g>
    </g>
  </g>
</svg>