<?xml version="1.0" encoding="UTF-8" standalone="no"?>
<!DOCTYPE svg PUBLIC "-//W3C//DTD SVG 1.1//EN" "http://www.w3.org/Graphics/SVG/1.1/DTD/svg11.dtd">
<svg width="100%" height="100%" viewBox="0 0 662 163" version="1.1" xmlns="http://www.w3.org/2000/svg" xmlns:xlink="http://www.w3.org/1999/xlink" xml:space="preserve" xmlns:serif="http://www.serif.com/" style="fill-rule:evenodd;clip-rule:evenodd;stroke-linejoin:round;stroke-miterlimit:2;">
    <g id="Layer-1" serif:id="Layer 1" transform="matrix(0.950053,0,0,0.950053,-11.5986,-325.661)">
        <path id="path21" d="M492.462,393.389L492.314,393.387L468.193,393.387C466.561,393.387 465.001,394.057 463.878,395.24C462.755,396.424 462.167,398.017 462.252,399.646L462.701,408.271C462.847,411.054 464.904,413.364 467.653,413.828L471.403,414.461C472.115,414.581 472.891,414.729 473.597,414.883L473.408,447.485C473.292,467.514 473.289,477.282 472.682,482.45C472.565,483.451 472.296,484.529 472.209,484.86C471.978,485.024 471.38,485.444 470.972,485.719C470.162,486.265 469.781,486.169 468.579,486.019L464.725,485.537C461.555,485.141 458.639,487.319 458.118,490.471L457.641,493.356C455.818,504.391 459.654,506.582 463.424,507.414L463.583,507.447C463.953,507.518 464.329,507.554 464.705,507.554C464.376,507.554 464.047,507.526 463.722,507.472L463.583,507.447C467.54,508.223 479.349,507.248 482.629,505.877C488.053,503.611 492.955,498.805 495.532,493.105C495.532,493.105 497.314,489.162 497.314,489.162C497.658,488.4 497.838,487.575 497.842,486.74L498.263,399.365C498.271,397.782 497.648,396.261 496.531,395.139C495.449,394.053 493.992,393.427 492.462,393.389ZM365.203,478.613C365.203,478.613 365.203,478.613 365.203,478.613C389.412,483.367 410.202,469.39 414.151,445.978C415.52,437.86 414.746,425.396 412.497,418.493C408.834,407.252 400.614,398.462 390.155,394.435C390.155,394.435 390.155,394.435 390.155,394.435C386.983,393.214 382.536,392.371 376.979,392.081C376.979,392.081 376.979,392.081 376.979,392.081C363.557,391.379 355.21,394.211 346.843,401.859C337.709,410.206 333.806,419.752 333.806,435.336C333.806,455.438 341.388,468.557 355.818,475.31C358.853,476.73 363.083,478.197 365.203,478.613ZM282.822,392.511L278.258,392.711C275.076,392.851 272.568,395.47 272.568,398.655L272.568,412.018C272.568,415.202 275.076,417.822 278.258,417.962L282.783,418.16L283.069,436.181C283.278,449.31 283.476,456.286 284.118,460.546C284.991,466.346 286.52,468.442 289.391,471.52C291.859,474.166 297.955,477.616 302.23,478.662C302.692,478.775 303.166,478.832 303.642,478.832L303.643,478.832C303.166,478.832 302.692,478.775 302.229,478.662C306.167,479.625 314.572,479.471 319.962,478.546C323.587,477.924 326.158,476.599 327.122,475.671C327.682,475.133 328.42,474.243 328.822,472.773C329.112,471.717 329.188,467.771 328.577,463.41C328.577,463.41 327.659,456.843 327.659,456.843C327.204,453.595 324.208,451.328 320.959,451.773L317.665,452.224C316.846,452.337 315.678,452.079 314.934,451.875C314.786,448.908 314.467,441.499 314.467,432.761L314.467,418.036L322.018,418.036C325.303,418.036 327.967,415.372 327.967,412.087L327.967,398.587C327.967,395.301 325.303,392.637 322.018,392.637L314.378,392.637L314.09,380.075C314.018,376.894 311.455,374.334 308.273,374.264L289.195,373.844C285.912,373.772 283.191,376.373 283.116,379.656L282.822,392.511ZM206.46,478.365L206.647,478.411L206.835,478.451L207.024,478.485L207.214,478.513L207.405,478.534L207.596,478.55L207.788,478.559L207.981,478.562C207.917,478.562 207.852,478.561 207.788,478.559L207.596,478.55L207.405,478.534L207.214,478.513L207.024,478.485L206.835,478.451L206.647,478.411L206.46,478.365C212.153,479.936 222.726,479.209 227.963,476.893C229.149,476.368 230.771,475.399 232.405,474.265C233.302,475.89 234.662,477.267 237.315,478.051C239.27,478.63 243.148,478.786 250.878,478.786L263.579,478.786C265.193,478.786 266.738,478.129 267.859,476.968C268.981,475.806 269.581,474.239 269.524,472.625L269.089,460.344C268.995,457.704 267.171,455.441 264.61,454.79L260.951,453.858L260.876,453.838C260.761,448.898 260.564,438.52 260.637,428.01C260.637,428.01 260.842,398.627 260.842,398.627C260.853,397.042 260.231,395.518 259.114,394.393C257.997,393.269 256.478,392.636 254.893,392.636L226.768,392.637C223.482,392.637 220.818,395.3 220.818,398.586L220.818,410.528C220.818,413.246 222.66,415.618 225.293,416.292L228.786,417.187C228.906,420.131 229.068,425.439 229.068,432.557C229.068,442.706 228.862,448.236 228.786,449.925C226.833,451.456 224.203,452.283 221.8,452.353C220.55,452.39 219.341,452.291 218.494,451.688C218.494,451.688 218.494,451.688 218.494,451.688C217.008,450.628 216.857,449.673 216.579,445.929C216.248,441.463 216.217,434.63 216.217,423.696C216.217,423.696 216.217,398.586 216.217,398.586C216.217,395.3 213.554,392.637 210.268,392.637L182.518,392.637C179.232,392.637 176.568,395.3 176.568,398.586L176.568,410.526C176.568,413.211 178.367,415.564 180.958,416.267L184.455,417.217C184.625,420.424 184.881,426.264 184.974,433.679C185.242,455.109 185.609,456.544 187.401,461.039C191.007,470.081 197.262,475.755 206.356,478.336L206.46,478.365ZM298.14,470.616C295.794,476.141 303.569,478.807 303.642,478.832C303.622,478.786 302.479,476.258 301.248,473.929C300.774,473.033 300.288,472.167 299.846,471.483C299.271,471.214 298.697,470.922 298.14,470.616ZM33.634,392.398C33.719,392.978 33.812,393.721 33.854,394.408C34.159,399.396 33.976,408.156 33.888,423.896C33.888,423.896 33.72,454.114 33.72,454.114L28.309,455.236C25.548,455.809 23.568,458.242 23.568,461.062L23.568,472.837C23.568,474.415 24.195,475.929 25.311,477.044C26.427,478.16 27.94,478.787 29.518,478.787L70.018,478.787C73.304,478.787 75.967,476.123 75.967,472.837L75.967,460.973C75.967,458.069 73.871,455.589 71.007,455.106L65.467,454.172L65.467,442.029C65.467,442.029 70.963,442.023 70.963,442.023C78.431,442.014 85.363,441.512 88.632,440.82C88.632,440.82 88.632,440.82 88.632,440.82C105.616,437.22 116.76,425.611 118.674,410.175C121.369,388.45 108.435,371.661 85.839,367.995C83.147,367.558 69.195,367.145 54.832,367.143C54.832,367.143 29.519,367.137 29.519,367.137C27.941,367.136 26.427,367.763 25.311,368.879C24.195,369.995 23.568,371.508 23.568,373.086L23.568,385.028C23.568,387.662 25.3,389.982 27.824,390.731L31.515,391.828C32.178,392.024 32.987,392.235 33.634,392.398ZM132.027,385.882C132.262,390.916 132.318,401.224 132.318,420.283L132.318,454.431L128.064,455.31C125.301,455.881 123.318,458.314 123.318,461.136L123.318,472.836C123.318,476.122 125.982,478.786 129.268,478.786L167.518,478.786C170.804,478.786 173.467,476.122 173.467,472.836L173.467,461.006C173.467,458.061 171.313,455.56 168.4,455.123L164.838,454.589C164.639,454.559 164.424,454.531 164.205,454.505C164.096,453.61 163.98,452.454 163.929,451.275C163.645,444.729 163.804,433.126 163.893,412.454C163.893,412.454 164.092,366.362 164.092,366.362C164.099,364.779 163.475,363.259 162.359,362.138C161.242,361.017 159.725,360.386 158.143,360.386L127.768,360.387C124.482,360.387 121.818,363.05 121.818,366.336L121.818,378.98C121.818,381.823 123.831,384.269 126.621,384.818L130.933,385.665C131.301,385.737 131.668,385.81 132.027,385.882ZM427.818,459.336L427.818,472.836C427.818,476.122 430.482,478.786 433.768,478.786L446.518,478.786C449.804,478.786 452.467,476.122 452.467,472.836L452.467,459.336C452.467,456.05 449.804,453.387 446.518,453.387L433.768,453.387C430.482,453.387 427.818,456.05 427.818,459.336ZM510.318,468.802L510.318,472.836C510.318,474.414 510.945,475.927 512.061,477.043C513.176,478.159 514.69,478.786 516.268,478.786L552.268,478.786C555.553,478.786 558.217,476.122 558.217,472.836L558.217,464.769C558.217,461.916 556.192,459.465 553.391,458.926L547.322,457.759L546.956,366.312C546.943,363.036 544.283,360.387 541.007,360.387L516.196,360.387C514.569,360.387 513.013,361.053 511.89,362.231C510.767,363.409 510.176,364.995 510.253,366.62L510.7,375.967C510.831,378.711 512.824,381.008 515.522,381.526L521.558,382.684L521.216,457.759L515.144,458.926C512.343,459.465 510.318,461.916 510.318,464.769L510.318,468.802ZM378.299,451.813C377.636,452.304 376.504,452.352 375.107,452.437C375.107,452.437 375.107,452.437 375.107,452.437C372.909,452.57 371.079,452.307 369.639,451.304C368.093,450.227 367.072,448.427 366.238,446.062C366.238,446.062 366.238,446.062 366.238,446.062C365.131,442.925 365.003,429.223 366.012,425.59C366.684,423.17 368.361,420.769 370.376,419.401C371.573,418.589 372.194,418.789 374.606,418.907C374.606,418.907 374.606,418.907 374.606,418.907C376.573,419.004 377.998,419.107 379.098,419.824C380.176,420.526 380.812,421.753 381.646,423.458C383.088,426.405 383.207,427.821 383.431,433.677C383.431,433.677 383.431,433.677 383.431,433.677C383.783,442.869 382.707,448.548 378.299,451.813L378.299,451.813ZM81.801,414.436C80.076,415.156 77.181,415.137 70.417,415.137L65.467,415.137L65.467,394.036C65.467,394.036 69.615,394.036 69.615,394.036C74.121,394.036 77.513,394.206 80.156,394.72C82.704,395.215 84.244,396.031 85.425,397.662C89.676,403.53 88.079,411.813 81.801,414.436L81.801,414.436ZM472.818,365.586L472.818,379.836C472.818,383.122 475.482,385.786 478.768,385.786L492.268,385.786C495.554,385.786 498.217,383.122 498.217,379.836L498.217,365.586C498.217,362.3 495.554,359.637 492.268,359.637L478.768,359.637C475.482,359.637 472.818,362.3 472.818,365.586Z" style="fill:white;fill-rule:nonzero;stroke:white;stroke-width:1.05px;"/>
        <path id="path211" serif:id="path21" d="M464.705,501.604C462.876,501.201 462.626,499.68 463.511,494.326L463.988,491.441L467.842,491.922C471.119,492.332 472.084,492.142 474.294,490.655C479.239,487.326 479.12,488.333 479.357,447.52L479.572,410.578L477.857,409.903C476.914,409.531 474.455,408.942 472.393,408.594L468.643,407.961L468.418,403.649L468.193,399.336L492.314,399.336L491.893,486.711L490.111,490.654C488.153,494.985 484.457,498.666 480.336,500.388C477.63,501.518 467.789,502.284 464.705,501.604L464.705,501.604ZM207.981,472.613C200.749,470.56 195.795,466.026 192.928,458.835C191.276,454.694 191.17,453.352 190.922,433.605C190.732,418.42 190.421,412.681 189.777,412.503C189.291,412.368 187.459,411.868 185.705,411.392L182.518,410.526L182.518,398.586L210.268,398.586L210.268,423.696C210.268,451.573 210.52,453.31 215.041,456.532C219.535,459.736 228.311,458.457 233.33,453.868C234.999,452.342 235.018,452.1 235.018,432.557C235.018,417.41 234.799,412.716 234.08,412.475C233.565,412.302 231.708,411.793 229.955,411.344L226.768,410.528L226.768,398.586L240.83,398.586L254.893,398.586L254.688,427.969C254.573,444.538 254.775,457.644 255.153,458.022C255.522,458.39 257.471,459.111 259.483,459.624L263.143,460.555L263.361,466.696L263.579,472.836L250.878,472.836C237.072,472.836 237.28,472.903 237.258,468.462C237.252,467.362 237.042,465.694 236.791,464.757C236.353,463.123 236.182,463.195 232.651,466.498C230.626,468.392 227.433,470.622 225.556,471.452C221.271,473.348 212.59,473.921 207.981,472.613L207.981,472.613ZM303.643,472.882C300.358,472.079 295.638,469.495 293.741,467.461C289.662,463.088 289.421,461.491 289.018,436.086L288.643,412.461L278.518,412.018L278.518,398.655L288.643,398.212L289.064,379.792L308.143,380.212L308.353,389.399L308.564,398.587L322.018,398.587L322.018,412.087L308.518,412.087L308.518,432.761C308.518,446.136 308.804,453.97 309.328,454.949C310.549,457.231 314.631,458.645 318.473,458.119L321.767,457.667L322.685,464.234C323.19,467.845 323.331,471.063 322.998,471.383C321.229,473.085 308.501,474.071 303.643,472.883L303.643,472.882ZM366.349,472.775C364.538,472.419 360.933,471.135 358.339,469.921C345.924,464.112 339.756,452.631 339.756,435.336C339.756,421.831 342.941,413.484 350.856,406.25C358.012,399.711 365.191,397.422 376.669,398.022C381.45,398.272 385.288,398.936 388.018,399.987C396.848,403.387 403.747,410.846 406.84,420.336C408.857,426.527 409.512,437.708 408.284,444.989C404.908,465.008 387.05,476.841 366.349,472.775ZM381.84,456.594C387.533,452.377 389.83,445.32 389.376,433.45C389.099,426.207 388.774,424.488 386.99,420.843C384.138,415.013 381.488,413.287 374.896,412.965C370.363,412.743 369.286,412.951 367.036,414.478C363.929,416.586 361.316,420.268 360.28,423.998C359.095,428.265 359.327,444.357 360.627,448.042C363.269,455.53 368.003,458.826 375.465,458.375C378.308,458.204 380.491,457.594 381.84,456.594ZM29.518,466.949L29.518,461.062L34.58,460.011L39.643,458.961L39.838,423.929C40.06,384.051 40.82,388.384 33.209,386.124L29.518,385.028L29.518,373.086L54.83,373.092C68.752,373.095 82.277,373.444 84.886,373.867C103.993,376.968 115.048,391.072 112.77,409.442C111.164,422.396 101.651,431.979 87.398,434.999C84.357,435.644 77.905,436.065 70.955,436.073L59.518,436.087L59.518,459.202L64.768,460.087L70.018,460.973L70.018,472.837L29.518,472.837L29.518,466.949ZM84.094,419.925C93.781,415.878 96.802,403.225 90.243,394.172C86.852,389.489 82.095,388.086 69.615,388.086L59.518,388.086L59.518,421.086L70.417,421.086C78.558,421.086 82.019,420.792 84.094,419.925ZM129.268,466.986L129.268,461.136L133.768,460.207L138.268,459.277L138.268,420.283C138.268,389.752 138.064,381.222 137.33,380.982C136.815,380.813 134.452,380.293 132.08,379.827L127.768,378.98L127.768,366.336L142.955,366.336L158.143,366.336L157.944,412.429C157.72,464.486 157.089,459.443 163.955,460.472L167.518,461.006L167.518,472.836L129.268,472.836L129.268,466.986ZM433.768,472.836L433.768,459.336L446.518,459.336L446.518,472.836L433.768,472.836ZM516.268,468.803L516.268,464.769L521.705,463.723L527.143,462.678L527.336,420.224L527.53,377.771L516.643,375.683L516.419,371.01L516.196,366.336L541.007,366.336L541.2,414.507L541.393,462.678L546.83,463.723L552.268,464.769L552.268,472.836L516.268,472.836L516.268,468.803ZM478.768,379.836L478.768,365.586L492.268,365.586L492.268,379.836L478.768,379.836Z" style="fill-rule:nonzero;stroke:black;stroke-width:1.05px;"/>
        <g transform="matrix(0.749283,0,0,0.749283,263.41,185.468)">
            <g id="Layer-11" serif:id="Layer 1">
                <g id="g51">
                    <circle id="circle18" cx="519.903" cy="381.451" r="46.772" style="fill:rgb(214,102,97);stroke:rgb(201,61,57);stroke-width:8.5px;stroke-linejoin:miter;stroke-miterlimit:4;"/>
                    <circle id="circle22" cx="519.903" cy="324.064" r="46.772" style="fill:rgb(170,125,192);stroke:rgb(148,91,176);stroke-width:8.5px;stroke-linejoin:miter;stroke-miterlimit:4;"/>
                    <circle id="circle20" cx="519.903" cy="266.676" r="46.772" style="fill:rgb(107,171,91);stroke:rgb(59,151,46);stroke-width:8.5px;stroke-linejoin:miter;stroke-miterlimit:4;"/>
                </g>
            </g>
        </g>
    </g>
</svg>
