<?xml version="1.0" encoding="UTF-8" standalone="no"?>
<!-- Created with Inkscape (http://www.inkscape.org/) -->

<svg
   width="67mm"
   height="20mm"
   viewBox="0 0 67 20"
   version="1.1"
   id="svg1"
   inkscape:version="1.4 (e7c3feb1, 2024-10-09)"
   xml:space="preserve"
   sodipodi:docname="logo.svg"
   xmlns:inkscape="http://www.inkscape.org/namespaces/inkscape"
   xmlns:sodipodi="http://sodipodi.sourceforge.net/DTD/sodipodi-0.dtd"
   xmlns="http://www.w3.org/2000/svg"
   xmlns:svg="http://www.w3.org/2000/svg"
   xmlns:serif="http://www.serif.com/"><sodipodi:namedview
     id="namedview1"
     pagecolor="#ffffff"
     bordercolor="#666666"
     borderopacity="1.0"
     inkscape:showpageshadow="2"
     inkscape:pageopacity="0.0"
     inkscape:pagecheckerboard="0"
     inkscape:deskcolor="#d1d1d1"
     inkscape:document-units="mm"
     inkscape:zoom="2.9766317"
     inkscape:cx="203.41785"
     inkscape:cy="58.28736"
     inkscape:window-width="1352"
     inkscape:window-height="724"
     inkscape:window-x="0"
     inkscape:window-y="25"
     inkscape:window-maximized="0"
     inkscape:current-layer="layer1" /><defs
     id="defs1" /><g
     inkscape:label="Layer 1"
     inkscape:groupmode="layer"
     id="layer1"><g
       style="clip-rule:evenodd;fill-rule:evenodd"
       id="g3"
       transform="matrix(0.08586632,0,0,0.08586632,3.2990061,2.6815563)"><g
         id="Layer-1"
         serif:id="Layer 1"
         transform="translate(-614.733,-339.436)">
        <g
   transform="matrix(1.36912,0,0,1.14015,583.759,327.006)"
   id="g1">
            <path
   d="m 146.848,38.142 c 0,-15.035 -10.165,-27.241 -22.685,-27.241 H 45.308 c -12.52,0 -22.685,12.206 -22.685,27.241 v 94.691 c 0,15.034 10.165,27.24 22.685,27.24 h 78.855 c 12.52,0 22.685,-12.206 22.685,-27.24 z"
   style="fill:#f5f3d5"
   id="path1" />
        </g>
        <g
   transform="matrix(0.483616,0,0,0.483616,448.339,267.753)"
   id="g2">
            <g
   id="Layer-11"
   serif:id="Layer 1">
                <g
   id="g51">
                    <circle
   id="circle18"
   cx="519.90302"
   cy="381.45099"
   r="46.771999"
   style="fill:#d66661;stroke:#c93d39;stroke-width:8.5px" />
                    <circle
   id="circle22"
   cx="519.90302"
   cy="324.064"
   r="46.771999"
   style="fill:#aa7dc0;stroke:#945bb0;stroke-width:8.5px" />
                    <circle
   id="circle20"
   cx="519.90302"
   cy="266.67599"
   r="46.771999"
   style="fill:#6bab5b;stroke:#3b972e;stroke-width:8.5px" />
                </g>
            </g>
        </g>
    </g></g><path
       d="M 23.036182,11.626705 V 9.9826426 h 2.177442 q 0.765556,0 1.192259,-0.389053 0.426704,-0.3890531 0.426704,-1.1169587 v -0.01255 q 0,-0.7341808 -0.426704,-1.1169587 -0.426703,-0.382778 -1.192259,-0.382778 H 23.036182 V 5.295181 h 2.698271 q 0.991458,0 1.725639,0.3953281 0.73418,0.3890531 1.135784,1.1044086 0.407878,0.7090806 0.407878,1.662888 v 0.01255 q 0,0.9600825 -0.407878,1.6691632 -0.401604,0.70908 -1.135784,1.098133 -0.734181,0.389053 -1.725639,0.389053 z m -1.079308,2.723372 V 5.295181 h 2.152342 v 9.054896 z m 7.994413,0 V 5.295181 h 2.083316 v 9.054896 z m 5.547143,0.144326 q -0.746731,0 -1.273835,-0.307478 -0.520829,-0.307477 -0.796931,-0.878506 -0.269827,-0.577305 -0.269827,-1.374236 V 7.5541987 h 2.077041 v 3.9407303 q 0,0.60868 0.288652,0.953808 0.288652,0.338852 0.859682,0.338852 0.282377,0 0.508279,-0.09413 0.225902,-0.100401 0.382778,-0.282377 0.163151,-0.181977 0.244727,-0.426704 0.08785,-0.251002 0.08785,-0.552204 V 7.5541987 h 2.077042 v 6.7958783 h -2.077042 v -1.167159 h -0.04392 q -0.169426,0.407878 -0.458079,0.702805 -0.288652,0.294927 -0.690255,0.451804 -0.401603,0.156876 -0.916157,0.156876 z m 8.157563,0 q -1.192259,0 -1.763288,-0.483179 Q 41.32795,13.528045 41.32795,12.398536 V 9.0978607 H 40.399243 V 7.5541987 H 41.32795 V 5.9540612 h 2.089592 v 1.6001375 h 1.223634 v 1.543662 h -1.223634 v 3.0371233 q 0,0.451804 0.200801,0.63378 0.207077,0.181977 0.614955,0.181977 0.131776,0 0.225902,-0.0063 0.09412,-0.01255 0.181976,-0.01882 v 1.487186 q -0.169426,0.03138 -0.414153,0.05648 -0.244727,0.0251 -0.57103,0.0251 z m 5.089064,0 q -1.060483,0 -1.832314,-0.420428 -0.771831,-0.420429 -1.192259,-1.211085 -0.414153,-0.796931 -0.414153,-1.907615 v -0.01255 q 0,-1.0981335 0.426703,-1.8887896 0.426703,-0.7906562 1.198534,-1.2110845 0.771831,-0.4267033 1.807214,-0.4267033 1.047934,0 1.819765,0.4204283 0.771831,0.4204282 1.192259,1.2110844 0.426703,0.7906562 0.426703,1.8950647 v 0.01255 q 0,1.116959 -0.420428,1.907615 -0.414153,0.790656 -1.185984,1.211085 -0.771831,0.420428 -1.82604,0.420428 z m 0.0063,-1.593863 q 0.401604,0 0.696531,-0.225901 0.301202,-0.232177 0.458078,-0.665156 0.163152,-0.432978 0.163152,-1.054208 v -0.01255 q 0,-0.614955 -0.169427,-1.0479331 Q 49.736515,9.4618135 49.435313,9.2359118 49.140385,9.01001 48.738782,9.01001 q -0.395328,0 -0.69653,0.2321768 -0.294927,0.2259018 -0.458079,0.6588802 -0.163151,0.426703 -0.163151,1.041658 v 0.01255 q 0,0.62123 0.156876,1.054208 0.163152,0.432979 0.458079,0.665156 0.301202,0.225901 0.715355,0.225901 z m 5.239667,1.562488 q -0.464354,0 -0.790656,-0.320028 -0.326303,-0.326302 -0.326303,-0.796931 0,-0.470629 0.326303,-0.790656 0.326302,-0.326303 0.790656,-0.326303 0.470629,0 0.790656,0.326303 0.326303,0.320027 0.326303,0.790656 0,0.470629 -0.326303,0.796931 -0.320027,0.320028 -0.790656,0.320028 z m 1.725637,2.108416 q -0.150601,0 -0.326302,-0.0063 -0.181977,-0.0063 -0.269828,-0.01882 v -1.518562 q 0.0502,0.0063 0.119226,0.0063 0.06275,0.0063 0.131776,0.0063 0.426704,0 0.614955,-0.150601 0.188252,-0.150601 0.188252,-0.520829 V 7.5541987 h 2.077041 v 6.8900033 q 0,1.035383 -0.652605,1.581313 -0.652605,0.545929 -1.882515,0.545929 z m 1.499737,-9.7953514 q -0.458079,0 -0.771831,-0.3074774 -0.307478,-0.3137524 -0.307478,-0.7404558 0,-0.4267033 0.307478,-0.7341807 0.313752,-0.3074774 0.771831,-0.3074774 0.451803,0 0.759281,0.3074774 0.313752,0.3074774 0.313752,0.7341807 0,0.4267034 -0.313752,0.7404558 -0.307478,0.3074774 -0.759281,0.3074774 z m 2.215093,7.5739844 V 5.295181 h 2.083317 v 9.054896 z"
       id="text3"
       style="font-weight:800;font-size:12.8513px;line-height:1.25;font-family:'System Font';-inkscape-font-specification:'System Font Ultra-Bold';fill:#4c4c4c;stroke-width:0.321283"
       aria-label="Pluto.jl" /></g></svg>
